HIERARCHY
ROOT Hips
{
    OFFSET 0.000000 0.000000 0.000000
    CHANNELS 6 Xposition Yposition Zposition Zrotation Xrotation Yrotation
    JOINT Spine
    {
        OFFSET -0.000000 7.790525 0.000000
        CHANNELS 3 Zrotation Xrotation Yrotation
        JOINT Spine1
        {
            OFFSET -0.000000 20.430923 0.000000
            CHANNELS 3 Zrotation Xrotation Yrotation
            JOINT Neck
            {
                OFFSET -0.000000 22.331051 0.000000
                CHANNELS 3 Zrotation Xrotation Yrotation
                JOINT Head
                {
                    OFFSET -0.000000 14.725992 1.900128
                    CHANNELS 3 Zrotation Xrotation Yrotation
                    End Site
                    {
                        OFFSET -0.000000 19.001280 0.000000
                    }
                }
            }
            JOINT LeftShoulder
            {
                OFFSET 3.812537 19.294388 -0.177115
                CHANNELS 3 Zrotation Xrotation Yrotation
                JOINT LeftArm
                {
                    OFFSET 9.162892 0.000000 0.000000
                    CHANNELS 3 Zrotation Xrotation Yrotation
                    JOINT LeftForeArm
                    {
                        OFFSET 30.063545 0.000000 0.000000
                        CHANNELS 3 Zrotation Xrotation Yrotation
                        JOINT LeftHand
                        {
                            OFFSET 28.325521 0.000000 0.000000
                            CHANNELS 3 Zrotation Xrotation Yrotation
                            End Site
                            {
                                OFFSET 14.250961 0.000000 0.000000
                            }
                        }
                    }
                }
            }
            JOINT RightShoulder
            {
                OFFSET -3.786349 19.294388 -0.177115
                CHANNELS 3 Zrotation Xrotation Yrotation
                JOINT RightArm
                {
                    OFFSET -9.162892 0.000000 0.000000
                    CHANNELS 3 Zrotation Xrotation Yrotation
                    JOINT RightForeArm
                    {
                        OFFSET -30.063545 0.000000 0.000000
                        CHANNELS 3 Zrotation Xrotation Yrotation
                        JOINT RightHand
                        {
                            OFFSET -28.325521 0.000000 0.000000
                            CHANNELS 3 Zrotation Xrotation Yrotation
                            End Site
                            {
                                OFFSET -14.250961 0.000000 0.000000
                            }
                        }
                    }
                }
            }
        }
    }
    JOINT LeftUpLeg
    {
        OFFSET 9.500640 0.000000 0.000000
        CHANNELS 3 Zrotation Xrotation Yrotation
        JOINT LeftLeg
        {
            OFFSET -0.000000 -41.640518 0.000000
            CHANNELS 3 Zrotation Xrotation Yrotation
            JOINT LeftFoot
            {
                OFFSET -0.000000 -37.182968 0.000000
                CHANNELS 3 Zrotation Xrotation Yrotation
                JOINT LeftToeBase
                {
                    OFFSET -0.000000 -6.175416 14.250961
                    CHANNELS 3 Zrotation Xrotation Yrotation
                    End Site
                    {
                        OFFSET -0.000000 0.000000 3.800256
                    }
                }
            }
        }
    }
    JOINT RightUpLeg
    {
        OFFSET -9.500640 0.000000 0.000000
        CHANNELS 3 Zrotation Xrotation Yrotation
        JOINT RightLeg
        {
            OFFSET -0.000000 -41.640518 0.000000
            CHANNELS 3 Zrotation Xrotation Yrotation
            JOINT RightFoot
            {
                OFFSET -0.000000 -37.182968 0.000000
                CHANNELS 3 Zrotation Xrotation Yrotation
                JOINT RightToeBase
                {
                    OFFSET -0.000000 -6.175416 14.250961
                    CHANNELS 3 Zrotation Xrotation Yrotation
                    End Site
                    {
                        OFFSET -0.000000 0.000000 3.800256
                    }
                }
            }
        }
    }
}
MOTION
Frames:    14
Frame Time:    0.010000
33.554722    89.419693    77.549759    1.024401    0.110654    9.319348    1.412628    -10.549403    2.679997    1.846673    5.053103    0.753841    -4.102049    19.917200    26.985268    -18.516193    -9.393205    27.237734    2.561101    -1.894432    2.651521    -17.882523    4.978173    -21.233475    48.886040    -58.903183    12.096499    4.965841    -61.509785    6.306296    -3.830261    8.521679    -3.495258    -85.112915    83.617332    160.101929    -21.838223    -29.692949    3.624465    21.741671    -27.697689    8.188548    -0.836504    2.269045    -0.867741    -1.470192    3.996296    -1.368446    0.909516    -6.554225    13.068344    0.000000    0.000000    0.000000    -3.696915    4.613468    -1.569699    2.350221    3.700758    -3.495812    -1.654078    -8.479381    -7.910346    0.000000    0.000000    0.000000    
33.549053    89.425621    77.534233    0.993017    0.131223    9.252749    1.400245    -10.589821    2.620490    1.884149    5.115725    0.731527    -4.112886    19.730377    26.890404    -18.244692    -9.283044    27.153389    2.315842    -1.598345    2.728120    -18.163731    5.050746    -20.894251    48.997902    -57.976177    10.196375    4.088768    -60.259735    5.892940    -3.879118    8.490675    -3.351784    -85.538597    83.580818    160.586929    -22.014565    -29.882214    3.429071    21.820980    -27.893925    8.305309    -0.796514    2.230077    -0.850827    -1.470723    3.980797    -1.353288    0.501148    -6.831352    12.625033    0.000000    0.000000    0.000000    -3.669881    4.562541    -1.549319    2.342329    3.710155    -3.473692    -1.628484    -8.448172    -7.885552    0.000000    0.000000    0.000000    
33.543278    89.420128    77.534920    1.011179    0.125506    9.215329    1.227920    -10.158987    2.626469    2.081950    4.374973    0.745334    -4.139470    20.129593    26.727259    -18.215963    -9.463955    26.935835    1.927503    -1.286732    2.718506    -17.880642    8.308222    -21.147394    54.598881    -57.090401    13.816167    3.162720    -60.709553    5.815102    -3.817729    8.746750    -3.442190    -85.918205    83.743324    160.850021    -21.945641    -29.817310    3.511301    21.856169    -27.809950    8.324148    -0.763669    2.269654    -0.860024    -1.478680    3.968676    -1.323496    1.327218    -6.898505    12.303231    0.000000    0.000000    0.000000    -3.686128    4.578300    -1.550770    2.341934    3.680316    -3.448973    0.325819    -8.311147    -8.125181    0.000000    0.000000    0.000000    
33.530773    89.417603    77.517097    0.982220    0.153389    9.145687    1.227251    -10.149632    2.624748    2.049224    4.365985    0.746350    -4.029794    20.046520    26.535301    -18.105619    -9.493022    26.769211    1.914184    -1.262798    2.848248    -19.448315    4.229540    -19.831388    46.729740    -56.831188    3.243759    3.579623    -57.500984    5.324482    -3.768449    8.777387    -3.440423    -83.174171    84.161911    157.999207    -21.523674    -29.646330    3.990103    21.653784    -27.613085    8.132105    -0.782639    2.211186    -0.833833    -1.470964    3.969950    -1.289455    0.411052    -6.858109    12.642960    0.000000    0.000000    0.000000    -3.659572    4.524081    -1.510622    2.339923    3.670099    -3.474258    -1.703314    -8.444908    -7.819488    0.000000    0.000000    0.000000    
33.525604    89.416862    77.507278    0.968229    0.165512    9.070657    1.243437    -10.064779    2.729466    1.985668    4.252892    0.785674    -3.933431    20.029421    26.239578    -17.914236    -9.590281    26.477406    1.745142    -1.047353    2.838969    -19.996264    3.855633    -19.373695    45.886066    -56.465893    -0.031942    3.734699    -56.358639    5.527218    -3.613551    8.692215    -3.434301    -86.730293    84.166656    161.538864    -22.013107    -29.674528    3.622867    22.061190    -27.626034    8.344515    -0.729032    2.219220    -0.807904    -1.473656    3.964874    -1.262238    1.733090    -6.627310    12.748976    0.000000    0.000000    0.000000    -3.651738    4.492271    -1.474073    2.343048    3.664771    -3.459301    -2.036358    -8.270020    -7.692023    0.000000    0.000000    0.000000    
33.518353    89.417206    77.500237    0.947116    0.170185    8.997307    1.421598    -10.374262    2.679696    1.663714    4.945401    0.764529    -3.813413    19.289415    26.048069    -17.498270    -9.398769    26.359533    1.917228    -1.156980    3.218798    -20.056082    6.593986    -19.773825    51.098877    -56.265778    3.081028    2.876688    -56.999233    5.560174    -3.801233    8.586510    -3.702893    -83.910027    83.645721    159.063538    -21.917360    -29.790392    3.594223    21.734921    -27.799828    8.191648    -0.704454    2.228612    -0.803135    -1.483219    3.932791    -1.209641    1.317393    -6.928325    12.342189    0.000000    0.000000    0.000000    -3.631241    4.478130    -1.443299    2.325421    3.644419    -3.397974    -1.641202    -8.402720    -7.809541    0.000000    0.000000    0.000000    
33.514381    89.423508    77.476242    0.885097    0.195689    8.875041    1.727914    -10.077874    2.451177    1.288122    4.329696    0.703966    -3.917866    19.708672    26.072721    -17.375742    -9.670878    26.293196    1.514315    -0.921840    3.500437    -20.239416    7.108697    -19.039549    51.608761    -56.038448    1.236746    1.334968    -56.341644    4.564715    -3.891430    8.842488    -3.005509    -78.657150    84.720322    153.992432    -21.289467    -29.359476    4.100319    21.387280    -27.358704    7.945055    -0.701365    2.172046    -0.721416    -1.472277    3.929930    -1.200246    0.427043    -6.877950    12.713711    0.000000    0.000000    0.000000    -3.586869    4.399755    -1.369324    2.334829    3.653740    -3.379143    0.440656    -8.196589    -8.057121    0.000000    0.000000    0.000000    
33.510273    89.425125    77.462402    0.872327    0.213687    8.789147    1.709340    -10.059006    2.427013    1.295156    4.324944    0.696129    -4.134704    19.721724    25.901054    -16.992830    -10.040338    25.985102    1.364483    -0.804453    3.635591    -20.993895    6.530887    -18.378893    50.452530    -55.892006    -2.550199    0.235170    -55.207603    4.030438    -3.961244    8.811803    -2.925899    -78.940620    84.772614    154.365265    -21.348606    -29.350954    4.035079    21.407509    -27.347603    8.004923    -0.695326    2.157511    -0.669789    -1.469984    3.916275    -1.160118    0.394485    -6.867267    12.698935    0.000000    0.000000    0.000000    -3.588451    4.354486    -1.338831    2.337138    3.656941    -3.299716    -1.616588    -8.316402    -7.795186    0.000000    0.000000    0.000000    
33.502655    89.417381    77.470016    0.886348    0.213243    8.742213    1.646473    -10.070146    2.402753    1.290204    4.376888    0.689508    -4.042193    19.648739    25.582550    -16.857569    -10.152479    25.671505    1.294070    -1.100282    3.907611    -21.562813    7.576079    -18.019388    51.421551    -55.420849    -4.094540    -0.873240    -54.301510    3.612528    -3.853704    8.483651    -2.677317    -83.002846    85.160248    158.338013    -21.535789    -29.294966    4.001802    21.676086    -27.251118    8.131639    -0.722181    2.197762    -0.668650    -1.469868    3.880887    -1.089317    0.847494    -6.608202    13.187740    0.000000    0.000000    0.000000    -3.623741    4.362977    -1.290632    2.397687    3.646599    -3.264061    -1.706434    -8.354085    -7.852832    0.000000    0.000000    0.000000    
33.499454    89.418213    77.453468    0.870713    0.242642    8.638977    1.397467    -9.906347    2.564545    1.494327    4.145599    0.747515    -3.363328    19.501547    25.000074    -17.081203    -9.887702    25.335230    1.275047    -0.821199    4.020717    -22.445812    7.352328    -17.737411    51.194611    -54.916443    -7.167858    -1.785915    -52.925514    3.702783    -3.561903    8.419346    -3.087667    -88.882782    84.298477    163.907425    -21.972107    -29.687939    3.594831    21.785295    -27.671272    8.303317    -0.724041    2.163170    -0.604309    -1.453108    3.889283    -1.065843    0.854398    -6.621228    13.195340    0.000000    0.000000    0.000000    -3.623983    4.287903    -1.305567    2.349343    3.693668    -2.885585    -2.000544    -8.188931    -7.918561    0.000000    0.000000    0.000000    
33.493095    89.420532    77.447716    0.849185    0.253361    8.531510    1.398416    -9.891762    2.588117    1.465089    4.130794    0.756822    -3.290359    19.440418    24.654688    -16.864033    -9.986325    24.986464    1.258217    -0.789186    4.108490    -23.250721    7.563340    -17.103504    51.312473    -54.285244    -9.688691    -2.878833    -51.527267    3.677181    -3.544831    8.508675    -3.106019    -88.625343    84.145760    163.689041    -22.009670    -29.762609    3.516040    21.509993    -27.807428    8.130463    -0.710456    2.169828    -0.545840    -1.445355    3.855680    -1.018340    0.944596    -6.624693    13.161456    0.000000    0.000000    0.000000    -3.617256    4.261152    -1.259584    2.404881    3.680835    -3.114267    -2.047657    -8.191765    -7.717270    0.000000    0.000000    0.000000    
33.488895    89.420174    77.435287    0.835493    0.276432    8.426377    1.204457    -9.983589    2.749831    1.809723    4.254411    0.801814    -3.223567    19.429667    24.181313    -16.852848    -10.116568    24.506222    0.807662    -0.572364    3.860726    -23.913719    6.833033    -16.322872    50.171921    -53.560791    -13.609518    -3.414152    -49.660675    4.102728    -3.709472    8.832883    -3.617950    -85.024178    83.711784    160.145859    -21.965029    -29.881056    3.432532    21.369499    -27.959553    8.090500    -0.687859    2.147036    -0.507919    -1.449010    3.834005    -0.986491    0.396719    -6.889133    12.737318    0.000000    0.000000    0.000000    -3.616448    4.207469    -1.256128    2.403410    3.674964    -2.962359    -2.073126    -8.146309    -7.748489    0.000000    0.000000    0.000000    
33.484451    89.430367    77.411758    0.785404    0.303672    8.284793    1.497203    -10.177230    2.572396    1.466027    4.531264    0.742476    -3.486151    19.342833    24.071056    -16.379755    -10.397431    24.263041    0.625058    -0.613516    4.115464    -24.286070    8.074945    -15.796402    52.504162    -53.042015    -13.558403    -5.029466    -48.917061    3.833363    -3.827035    8.904075    -3.004902    -78.836327    84.570389    154.118195    -21.501989    -29.549698    3.905911    21.194029    -27.617680    7.782786    -0.648427    2.101972    -0.428079    -1.437475    3.836386    -0.946443    -0.272352    -6.861585    12.842300    0.000000    0.000000    0.000000    -3.584487    4.111821    -1.235674    2.407246    3.727979    -2.942631    -1.651195    -8.281329    -7.789531    0.000000    0.000000    0.000000    
33.478512    89.431801    77.402878    0.773376    0.316902    8.183240    1.492550    -10.155262    2.582126    1.424695    4.494328    0.748071    -3.425467    19.348898    23.648304    -16.141743    -10.554025    23.822021    0.540296    -0.434836    4.247945    -25.021057    8.592749    -15.293055    53.185272    -52.827267    -15.469041    -5.560595    -47.992992    4.291331    -3.619392    9.235854    -3.020263    -78.096970    84.244278    153.282623    -21.892210    -29.678818    3.492005    21.370592    -27.767786    7.956252    -0.652437    2.106959    -0.398135    -1.430286    3.816998    -0.893238    0.516636    -6.876397    12.752727    0.000000    0.000000    0.000000    -3.590601    4.085524    -1.204804    2.417334    3.703770    -2.854462    -1.780665    -8.234133    -7.749717    0.000000    0.000000    0.000000    
